<svg xmlns="http://www.w3.org/2000/svg" width="375" viewBox="0 0 375 375" height="375" version="1.0"><defs><clipPath id="a"><path d="M 7.664062 89 L 247 89 L 247 186 L 7.664062 186 Z M 7.664062 89"/></clipPath></defs><path fill="#1F355F" d="M 103.664062 168.503906 C 150.898438 158.476562 188.484375 137.824219 203.714844 117.816406 C 210.296875 109.171875 198.65625 99.148438 172.28125 101.113281 C 146.207031 103.0625 141.1875 107.9375 130.640625 107.9375 C 120.09375 107.9375 115.058594 103.28125 89 101.113281 C 51.980469 98.039062 48.25 135.71875 58.035156 174.335938 C 72.335938 173.78125 87.765625 171.878906 103.664062 168.503906"/><g clip-path="url(#a)"><path fill="#1F355F" d="M 178.546875 89.125 C 204.640625 90.988281 222.414062 98.144531 224.878906 109.816406 C 229.386719 131.144531 181.066406 159.464844 116.953125 173.074219 C 70.847656 182.859375 29.125 182.371094 7.65625 173.390625 C 25.617188 187.566406 75.710938 190.136719 132.015625 178.1875 C 199.660156 163.828125 250.644531 133.949219 245.890625 111.441406 C 242.738281 96.542969 215.9375 88.617188 178.546875 89.125"/></g><path fill="#5CE1E6" d="M 132.015625 178.1875 C 106.332031 183.636719 81.945312 186.066406 61.308594 185.75 C 71.441406 217.503906 89.472656 247.214844 104.246094 252.382812 C 138.648438 264.421875 75.925781 191.394531 130.640625 191.394531 C 185.355469 191.394531 122.632812 264.421875 157.035156 252.382812 C 176.960938 245.414062 202.824219 193.789062 207.222656 152.722656 C 187.363281 162.878906 161.246094 171.984375 132.015625 178.1875"/><g fill="#1F355F"><g><g><path d="M 2.796875 -15.921875 L 6.8125 -15.890625 C 8.90625 -15.890625 10.742188 -15.132812 12.328125 -13.625 C 13.921875 -12.113281 14.71875 -10.253906 14.71875 -8.046875 C 14.71875 -5.847656 13.941406 -3.957031 12.390625 -2.375 C 10.835938 -0.800781 8.957031 -0.015625 6.75 -0.015625 L 2.78125 -0.015625 C 1.894531 -0.015625 1.34375 -0.195312 1.125 -0.5625 C 0.957031 -0.863281 0.875 -1.328125 0.875 -1.953125 L 0.875 -14.015625 C 0.875 -14.359375 0.882812 -14.609375 0.90625 -14.765625 C 0.925781 -14.921875 0.992188 -15.109375 1.109375 -15.328125 C 1.304688 -15.722656 1.867188 -15.921875 2.796875 -15.921875 Z M 6.8125 -3.859375 C 7.851562 -3.859375 8.789062 -4.242188 9.625 -5.015625 C 10.46875 -5.796875 10.890625 -6.769531 10.890625 -7.9375 C 10.890625 -9.101562 10.476562 -10.082031 9.65625 -10.875 C 8.84375 -11.664062 7.882812 -12.0625 6.78125 -12.0625 L 4.703125 -12.0625 L 4.703125 -3.859375 Z M 6.8125 -3.859375" transform="translate(78.151 214.051)"/></g></g></g><g fill="#1F355F"><g><g><path d="M 13.03125 -2.6875 C 13.25 -2.164062 13.359375 -1.789062 13.359375 -1.5625 C 13.359375 -1.007812 12.910156 -0.546875 12.015625 -0.171875 C 11.554688 0.0234375 11.179688 0.125 10.890625 0.125 C 10.609375 0.125 10.378906 0.0546875 10.203125 -0.078125 C 10.023438 -0.210938 9.890625 -0.351562 9.796875 -0.5 C 9.648438 -0.769531 9.085938 -2.078125 8.109375 -4.421875 L 7.4375 -4.375 L 4.703125 -4.375 L 4.703125 -1.9375 C 4.703125 -1.601562 4.691406 -1.351562 4.671875 -1.1875 C 4.648438 -1.019531 4.582031 -0.828125 4.46875 -0.609375 C 4.257812 -0.210938 3.695312 -0.015625 2.78125 -0.015625 C 1.769531 -0.015625 1.175781 -0.285156 1 -0.828125 C 0.914062 -1.066406 0.875 -1.441406 0.875 -1.953125 L 0.875 -13.984375 C 0.875 -14.316406 0.882812 -14.566406 0.90625 -14.734375 C 0.925781 -14.898438 0.992188 -15.09375 1.109375 -15.3125 C 1.304688 -15.695312 1.867188 -15.890625 2.796875 -15.890625 L 7.484375 -15.890625 C 8.753906 -15.890625 9.988281 -15.429688 11.1875 -14.515625 C 11.769531 -14.066406 12.25 -13.457031 12.625 -12.6875 C 13 -11.914062 13.1875 -11.0625 13.1875 -10.125 C 13.1875 -8.488281 12.644531 -7.144531 11.5625 -6.09375 C 11.875 -5.320312 12.363281 -4.1875 13.03125 -2.6875 Z M 4.703125 -8.21875 L 7.484375 -8.21875 C 7.898438 -8.21875 8.316406 -8.375 8.734375 -8.6875 C 9.160156 -9.007812 9.375 -9.488281 9.375 -10.125 C 9.375 -10.757812 9.160156 -11.238281 8.734375 -11.5625 C 8.316406 -11.894531 7.882812 -12.0625 7.4375 -12.0625 L 4.703125 -12.0625 Z M 4.703125 -8.21875" transform="translate(95.98 214.051)"/></g></g></g><g fill="#1F355F"><g><g><path d="M 9.15625 -9.578125 L 12.96875 -9.578125 C 13.75 -9.554688 14.226562 -9.359375 14.40625 -8.984375 C 14.550781 -8.703125 14.625 -8.296875 14.625 -7.765625 L 14.625 -3 C 14.625 -2.53125 14.421875 -2.085938 14.015625 -1.671875 C 12.796875 -0.410156 10.972656 0.21875 8.546875 0.21875 C 6.390625 0.21875 4.515625 -0.59375 2.921875 -2.21875 C 1.335938 -3.84375 0.546875 -5.804688 0.546875 -8.109375 C 0.546875 -10.410156 1.351562 -12.328125 2.96875 -13.859375 C 4.59375 -15.398438 6.503906 -16.171875 8.703125 -16.171875 C 10.398438 -16.171875 12.007812 -15.609375 13.53125 -14.484375 C 13.925781 -14.191406 14.125 -13.867188 14.125 -13.515625 C 14.125 -13.160156 13.957031 -12.753906 13.625 -12.296875 C 13.0625 -11.523438 12.546875 -11.140625 12.078125 -11.140625 C 11.804688 -11.140625 11.363281 -11.335938 10.75 -11.734375 C 10.144531 -12.140625 9.425781 -12.34375 8.59375 -12.34375 C 7.488281 -12.34375 6.507812 -11.953125 5.65625 -11.171875 C 4.800781 -10.398438 4.375 -9.390625 4.375 -8.140625 C 4.375 -6.890625 4.804688 -5.828125 5.671875 -4.953125 C 6.546875 -4.078125 7.53125 -3.640625 8.625 -3.640625 C 9.425781 -3.640625 10.144531 -3.769531 10.78125 -4.03125 L 10.78125 -6.390625 L 9.0625 -6.390625 C 8.613281 -6.390625 8.296875 -6.445312 8.109375 -6.5625 C 7.921875 -6.6875 7.796875 -6.859375 7.734375 -7.078125 C 7.679688 -7.304688 7.65625 -7.609375 7.65625 -7.984375 C 7.65625 -8.367188 7.6875 -8.675781 7.75 -8.90625 C 7.8125 -9.144531 7.929688 -9.304688 8.109375 -9.390625 C 8.367188 -9.515625 8.71875 -9.578125 9.15625 -9.578125 Z M 9.15625 -9.578125" transform="translate(120.274 214.051)"/></g></g></g><g fill="#1F355F"><g><g><path d="M 10.046875 -14.765625 L 15.890625 -2.671875 C 16.140625 -2.179688 16.265625 -1.8125 16.265625 -1.5625 C 16.265625 -1.039062 15.84375 -0.570312 15 -0.15625 C 14.507812 0.09375 14.125 0.21875 13.84375 0.21875 C 13.5625 0.21875 13.328125 0.148438 13.140625 0.015625 C 12.960938 -0.109375 12.832031 -0.242188 12.75 -0.390625 C 12.675781 -0.535156 12.566406 -0.753906 12.421875 -1.046875 L 11.296875 -3.390625 L 5.296875 -3.390625 L 4.15625 -1.046875 C 4.019531 -0.753906 3.910156 -0.539062 3.828125 -0.40625 C 3.742188 -0.28125 3.613281 -0.148438 3.4375 -0.015625 C 3.257812 0.117188 3.03125 0.1875 2.75 0.1875 C 2.46875 0.1875 2.078125 0.0664062 1.578125 -0.171875 C 0.742188 -0.578125 0.328125 -1.039062 0.328125 -1.5625 C 0.328125 -1.8125 0.445312 -2.179688 0.6875 -2.671875 L 6.546875 -14.796875 C 6.703125 -15.128906 6.941406 -15.394531 7.265625 -15.59375 C 7.597656 -15.789062 7.945312 -15.890625 8.3125 -15.890625 C 9.09375 -15.890625 9.671875 -15.515625 10.046875 -14.765625 Z M 8.28125 -9.5625 L 6.859375 -6.59375 L 9.734375 -6.59375 Z M 8.28125 -9.5625" transform="translate(154.566 214.051)"/></g></g></g><g fill="#1F355F"><g><g><path d="M 15.375 -15.65625 C 16.226562 -15.238281 16.65625 -14.773438 16.65625 -14.265625 C 16.65625 -14.035156 16.546875 -13.691406 16.328125 -13.234375 L 10.34375 -1.078125 C 10.1875 -0.765625 9.941406 -0.507812 9.609375 -0.3125 C 9.285156 -0.113281 8.953125 -0.015625 8.609375 -0.015625 L 8.390625 -0.015625 C 8.023438 -0.015625 7.679688 -0.113281 7.359375 -0.3125 C 7.035156 -0.507812 6.796875 -0.765625 6.640625 -1.078125 L 0.65625 -13.234375 C 0.4375 -13.691406 0.328125 -14.035156 0.328125 -14.265625 C 0.328125 -14.773438 0.753906 -15.238281 1.609375 -15.65625 C 2.085938 -15.90625 2.453125 -16.03125 2.703125 -16.03125 C 2.953125 -16.03125 3.140625 -16 3.265625 -15.9375 C 3.398438 -15.882812 3.523438 -15.785156 3.640625 -15.640625 C 3.773438 -15.460938 3.894531 -15.269531 4 -15.0625 C 4.101562 -14.851562 4.378906 -14.253906 4.828125 -13.265625 C 5.285156 -12.273438 5.769531 -11.222656 6.28125 -10.109375 C 6.789062 -8.992188 7.273438 -7.941406 7.734375 -6.953125 C 8.191406 -5.960938 8.445312 -5.410156 8.5 -5.296875 L 12.84375 -14.796875 C 12.957031 -15.066406 13.054688 -15.28125 13.140625 -15.4375 C 13.398438 -15.832031 13.71875 -16.03125 14.09375 -16.03125 C 14.46875 -16.03125 14.894531 -15.90625 15.375 -15.65625 Z M 15.375 -15.65625" transform="translate(215.841 214.051)"/></g></g></g><g fill="#1F355F"><g><g><path d="M 4.703125 -3.203125 L 10.609375 -3.203125 C 11.085938 -3.203125 11.429688 -3.148438 11.640625 -3.046875 C 11.859375 -2.941406 12.003906 -2.769531 12.078125 -2.53125 C 12.148438 -2.300781 12.1875 -1.992188 12.1875 -1.609375 C 12.1875 -1.234375 12.148438 -0.925781 12.078125 -0.6875 C 12.003906 -0.457031 11.882812 -0.300781 11.71875 -0.21875 C 11.4375 -0.0703125 11.054688 0 10.578125 0 L 2.78125 0 C 1.769531 0 1.175781 -0.273438 1 -0.828125 C 0.914062 -1.054688 0.875 -1.425781 0.875 -1.9375 L 0.875 -13.984375 C 0.875 -14.316406 0.882812 -14.566406 0.90625 -14.734375 C 0.925781 -14.898438 0.992188 -15.09375 1.109375 -15.3125 C 1.304688 -15.695312 1.867188 -15.890625 2.796875 -15.890625 C 3.804688 -15.890625 4.40625 -15.625 4.59375 -15.09375 C 4.664062 -14.84375 4.703125 -14.46875 4.703125 -13.96875 Z M 4.703125 -3.203125" transform="translate(254.536 214.051)"/></g></g></g><g fill="#1F355F"><g><g><path d="M 4.703125 -3.84375 L 11.390625 -3.84375 C 11.722656 -3.84375 11.972656 -3.832031 12.140625 -3.8125 C 12.304688 -3.789062 12.492188 -3.71875 12.703125 -3.59375 C 13.097656 -3.394531 13.296875 -2.832031 13.296875 -1.90625 C 13.296875 -0.894531 13.023438 -0.300781 12.484375 -0.125 C 12.242188 -0.0390625 11.867188 0 11.359375 0 L 2.78125 0 C 1.769531 0 1.175781 -0.273438 1 -0.828125 C 0.914062 -1.054688 0.875 -1.425781 0.875 -1.9375 L 0.875 -13.984375 C 0.875 -14.722656 1.007812 -15.222656 1.28125 -15.484375 C 1.550781 -15.753906 2.070312 -15.890625 2.84375 -15.890625 L 11.390625 -15.890625 C 11.722656 -15.890625 11.972656 -15.878906 12.140625 -15.859375 C 12.304688 -15.835938 12.492188 -15.769531 12.703125 -15.65625 C 13.097656 -15.457031 13.296875 -14.894531 13.296875 -13.96875 C 13.296875 -12.957031 13.023438 -12.363281 12.484375 -12.1875 C 12.242188 -12.101562 11.867188 -12.0625 11.359375 -12.0625 L 4.703125 -12.0625 L 4.703125 -9.875 L 9 -9.875 C 9.332031 -9.875 9.582031 -9.859375 9.75 -9.828125 C 9.914062 -9.804688 10.109375 -9.738281 10.328125 -9.625 C 10.710938 -9.425781 10.90625 -8.863281 10.90625 -7.9375 C 10.90625 -6.925781 10.628906 -6.332031 10.078125 -6.15625 C 9.835938 -6.070312 9.460938 -6.03125 8.953125 -6.03125 L 4.703125 -6.03125 Z M 4.703125 -3.84375" transform="translate(269.827 214.051)"/></g></g></g><g fill="#1F355F"><g><g><path d="M 13.484375 -15.59375 C 14.191406 -15.101562 14.546875 -14.625 14.546875 -14.15625 C 14.546875 -13.882812 14.378906 -13.503906 14.046875 -13.015625 L 9.375 -6 L 9.375 -1.859375 C 9.375 -1.523438 9.359375 -1.273438 9.328125 -1.109375 C 9.304688 -0.953125 9.238281 -0.765625 9.125 -0.546875 C 9.007812 -0.328125 8.816406 -0.171875 8.546875 -0.078125 C 8.273438 0.00390625 7.90625 0.046875 7.4375 0.046875 C 6.976562 0.046875 6.609375 0.00390625 6.328125 -0.078125 C 6.054688 -0.171875 5.863281 -0.328125 5.75 -0.546875 C 5.632812 -0.773438 5.566406 -0.972656 5.546875 -1.140625 C 5.523438 -1.304688 5.515625 -1.5625 5.515625 -1.90625 L 5.515625 -6 L 0.828125 -13.015625 C 0.492188 -13.503906 0.328125 -13.882812 0.328125 -14.15625 C 0.328125 -14.625 0.644531 -15.070312 1.28125 -15.5 C 1.914062 -15.925781 2.367188 -16.140625 2.640625 -16.140625 C 2.921875 -16.140625 3.140625 -16.082031 3.296875 -15.96875 C 3.546875 -15.800781 3.804688 -15.503906 4.078125 -15.078125 L 7.4375 -9.6875 L 10.796875 -15.078125 C 11.078125 -15.503906 11.316406 -15.785156 11.515625 -15.921875 C 11.710938 -16.066406 11.945312 -16.140625 12.21875 -16.140625 C 12.488281 -16.140625 12.910156 -15.957031 13.484375 -15.59375 Z M 13.484375 -15.59375" transform="translate(302.47 214.051)"/></g></g></g><g><g><g><path d="M 7.53125 0.1875 C 6.164062 0.1875 4.992188 -0.0859375 4.015625 -0.640625 C 3.046875 -1.191406 2.300781 -1.972656 1.78125 -2.984375 C 1.257812 -3.992188 1 -5.1875 1 -6.5625 C 1 -7.9375 1.257812 -9.125 1.78125 -10.125 C 2.300781 -11.132812 3.046875 -11.914062 4.015625 -12.46875 C 4.992188 -13.019531 6.164062 -13.296875 7.53125 -13.296875 C 8.207031 -13.296875 8.875 -13.207031 9.53125 -13.03125 C 10.195312 -12.863281 10.773438 -12.617188 11.265625 -12.296875 C 11.585938 -12.078125 11.78125 -11.820312 11.84375 -11.53125 C 11.90625 -11.238281 11.867188 -10.972656 11.734375 -10.734375 C 11.597656 -10.492188 11.390625 -10.332031 11.109375 -10.25 C 10.835938 -10.175781 10.535156 -10.25 10.203125 -10.46875 C 9.816406 -10.71875 9.398438 -10.894531 8.953125 -11 C 8.515625 -11.113281 8.066406 -11.171875 7.609375 -11.171875 C 6.273438 -11.171875 5.257812 -10.769531 4.5625 -9.96875 C 3.875 -9.175781 3.53125 -8.039062 3.53125 -6.5625 C 3.53125 -5.082031 3.875 -3.941406 4.5625 -3.140625 C 5.257812 -2.335938 6.273438 -1.9375 7.609375 -1.9375 C 8.078125 -1.9375 8.539062 -1.992188 9 -2.109375 C 9.457031 -2.222656 9.890625 -2.40625 10.296875 -2.65625 C 10.628906 -2.863281 10.925781 -2.929688 11.1875 -2.859375 C 11.445312 -2.785156 11.640625 -2.632812 11.765625 -2.40625 C 11.898438 -2.175781 11.941406 -1.925781 11.890625 -1.65625 C 11.847656 -1.382812 11.679688 -1.144531 11.390625 -0.9375 C 10.898438 -0.570312 10.3125 -0.289062 9.625 -0.09375 C 8.9375 0.09375 8.238281 0.1875 7.53125 0.1875 Z M 7.53125 0.1875" transform="translate(118.672 235.596)"/></g></g></g><g><g><g><path d="M 1.5625 0.15625 C 1.125 0.15625 0.8125 0.00390625 0.625 -0.296875 C 0.445312 -0.597656 0.457031 -0.957031 0.65625 -1.375 L 5.5625 -12.25 C 5.71875 -12.613281 5.910156 -12.867188 6.140625 -13.015625 C 6.367188 -13.171875 6.632812 -13.25 6.9375 -13.25 C 7.21875 -13.25 7.472656 -13.171875 7.703125 -13.015625 C 7.929688 -12.867188 8.128906 -12.613281 8.296875 -12.25 L 13.21875 -1.375 C 13.414062 -0.9375 13.425781 -0.570312 13.25 -0.28125 C 13.082031 0.0078125 12.785156 0.15625 12.359375 0.15625 C 12.015625 0.15625 11.742188 0.0703125 11.546875 -0.09375 C 11.359375 -0.269531 11.191406 -0.53125 11.046875 -0.875 L 10.109375 -3.03125 L 3.71875 -3.03125 L 2.8125 -0.875 C 2.644531 -0.507812 2.472656 -0.242188 2.296875 -0.078125 C 2.128906 0.078125 1.882812 0.15625 1.5625 0.15625 Z M 6.890625 -10.53125 L 4.53125 -4.921875 L 9.296875 -4.921875 L 6.9375 -10.53125 Z M 6.890625 -10.53125" transform="translate(137.719 235.596)"/></g></g></g><g><g><g><path d="M 6.640625 0.15625 C 6.003906 0.15625 5.550781 -0.15625 5.28125 -0.78125 L 0.421875 -11.671875 C 0.222656 -12.148438 0.234375 -12.53125 0.453125 -12.8125 C 0.671875 -13.101562 0.988281 -13.25 1.40625 -13.25 C 1.769531 -13.25 2.039062 -13.171875 2.21875 -13.015625 C 2.394531 -12.867188 2.546875 -12.640625 2.671875 -12.328125 L 6.671875 -3.046875 L 10.671875 -12.34375 C 10.804688 -12.644531 10.96875 -12.867188 11.15625 -13.015625 C 11.34375 -13.171875 11.601562 -13.25 11.9375 -13.25 C 12.332031 -13.25 12.628906 -13.097656 12.828125 -12.796875 C 13.035156 -12.503906 13.035156 -12.128906 12.828125 -11.671875 L 7.984375 -0.78125 C 7.835938 -0.46875 7.660156 -0.234375 7.453125 -0.078125 C 7.253906 0.078125 6.984375 0.15625 6.640625 0.15625 Z M 6.640625 0.15625" transform="translate(157.956 235.596)"/></g></g></g><g><g><g><path d="M 2.640625 0 C 1.835938 0 1.4375 -0.410156 1.4375 -1.234375 L 1.4375 -11.953125 C 1.4375 -12.765625 1.832031 -13.171875 2.625 -13.171875 C 3.414062 -13.171875 3.8125 -12.765625 3.8125 -11.953125 L 3.8125 -2.03125 L 9.203125 -2.03125 C 9.898438 -2.03125 10.25 -1.691406 10.25 -1.015625 C 10.25 -0.335938 9.898438 0 9.203125 0 Z M 2.640625 0" transform="translate(197.854 235.596)"/></g></g></g><g><g><g><path d="M 2.625 0.15625 C 1.832031 0.15625 1.4375 -0.253906 1.4375 -1.078125 L 1.4375 -12.03125 C 1.4375 -12.84375 1.832031 -13.25 2.625 -13.25 C 3.414062 -13.25 3.8125 -12.84375 3.8125 -12.03125 L 3.8125 -1.078125 C 3.8125 -0.253906 3.414062 0.15625 2.625 0.15625 Z M 2.625 0.15625" transform="translate(234.943 235.596)"/></g></g></g><g><g><g><path d="M 2.625 0.15625 C 1.832031 0.15625 1.4375 -0.253906 1.4375 -1.078125 L 1.4375 -11.90625 C 1.4375 -12.707031 1.835938 -13.109375 2.640625 -13.109375 L 7.125 -13.109375 C 8.5625 -13.109375 9.671875 -12.765625 10.453125 -12.078125 C 11.234375 -11.390625 11.625 -10.425781 11.625 -9.1875 C 11.625 -8.207031 11.367188 -7.394531 10.859375 -6.75 C 10.347656 -6.113281 9.617188 -5.6875 8.671875 -5.46875 C 9.296875 -5.269531 9.816406 -4.789062 10.234375 -4.03125 L 11.625 -1.453125 C 11.832031 -1.054688 11.867188 -0.6875 11.734375 -0.34375 C 11.609375 -0.0078125 11.289062 0.15625 10.78125 0.15625 C 10.445312 0.15625 10.175781 0.0820312 9.96875 -0.0625 C 9.757812 -0.207031 9.570312 -0.425781 9.40625 -0.71875 L 7.53125 -4.1875 C 7.3125 -4.601562 7.046875 -4.882812 6.734375 -5.03125 C 6.429688 -5.175781 6.046875 -5.25 5.578125 -5.25 L 3.8125 -5.25 L 3.8125 -1.078125 C 3.8125 -0.253906 3.414062 0.15625 2.625 0.15625 Z M 3.8125 -7.015625 L 6.71875 -7.015625 C 8.445312 -7.015625 9.3125 -7.71875 9.3125 -9.125 C 9.3125 -10.53125 8.445312 -11.234375 6.71875 -11.234375 L 3.8125 -11.234375 Z M 3.8125 -7.015625" transform="translate(246.586 235.596)"/></g></g></g><g><g><g><path d="M 2.703125 0 C 1.859375 0 1.4375 -0.421875 1.4375 -1.265625 L 1.4375 -11.84375 C 1.4375 -12.6875 1.859375 -13.109375 2.703125 -13.109375 L 9.328125 -13.109375 C 9.972656 -13.109375 10.296875 -12.796875 10.296875 -12.171875 C 10.296875 -11.535156 9.972656 -11.21875 9.328125 -11.21875 L 3.71875 -11.21875 L 3.71875 -7.609375 L 8.921875 -7.609375 C 9.566406 -7.609375 9.890625 -7.289062 9.890625 -6.65625 C 9.890625 -6.019531 9.566406 -5.703125 8.921875 -5.703125 L 3.71875 -5.703125 L 3.71875 -1.890625 L 9.328125 -1.890625 C 9.972656 -1.890625 10.296875 -1.578125 10.296875 -0.953125 C 10.296875 -0.316406 9.972656 0 9.328125 0 Z M 2.703125 0" transform="translate(265.745 235.596)"/></g></g></g></svg>